<svg width="160" height="160" viewBox="0 0 160 160" fill="none" xmlns="http://www.w3.org/2000/svg">
<g filter="url(#filter0_dd)">
<rect width="152" height="152" transform="translate(4)" fill="#EE3643"/>
<path fill-rule="evenodd" clip-rule="evenodd" d="M39.8913 35C37.2296 35 37 37.81 37 37.81V59.0845C37 63.1275 40.9912 63 40.9912 63H53.3745C56.0349 63 55.5757 65.0554 55.5757 65.0554C55.5757 65.0554 52.1811 82.9708 51.8154 86.0017C51.4483 89.0354 49.2472 90.9646 49.2472 90.9646C49.2472 90.9646 46.3119 92.6185 45.1199 93.2615C43.9279 93.9046 43.9279 97 43.9279 97H87V95.2817C87 93.2615 77.4977 90.9646 73.9217 90.5969C70.3444 90.2307 71.0785 87.8401 71.0785 87.8401L72.5455 77.0922H76.6728L78.2319 66.2507H74.1046L74.5597 63H86.3958C94.3768 62.1724 100 56.6967 100 56.6967V40.1583C93.6715 35.6567 83.7354 35 83.7354 35H39.8913ZM119.541 45H138.085C138.876 45 140 46.6707 140 48.5C140 50.3293 138.876 52 138.085 52H119.541C118.688 55.0493 116.693 57 114.369 57H104V40H114.369C116.694 40 118.688 41.9507 119.541 45ZM46.6004 119C44 119 44 116.176 44 116.176V101.018H87V116.268C87 118.747 84.2144 119 84.2144 119H46.6004ZM86 42.5229V42.4771C86 41.6647 85.3806 41 84.6237 41H43.3763C42.6193 41 42 41.6647 42 42.4771V42.5229C42 43.3353 42.6193 44 43.3763 44H84.6237C85.3806 44 86 43.3353 86 42.5229Z" fill="white"/>
</g>
<defs>
<filter id="filter0_dd" x="0" y="0" width="160" height="160" filterUnits="userSpaceOnUse" color-interpolation-filters="sRGB">
<feFlood flood-opacity="0" result="BackgroundImageFix"/>
<feColorMatrix in="SourceAlpha" type="matrix" values="0 0 0 0 0 0 0 0 0 0 0 0 0 0 0 0 0 0 127 0"/>
<feOffset dy="4"/>
<feGaussianBlur stdDeviation="2"/>
<feColorMatrix type="matrix" values="0 0 0 0 0 0 0 0 0 0 0 0 0 0 0 0 0 0 0.25 0"/>
<feBlend mode="normal" in2="BackgroundImageFix" result="effect1_dropShadow"/>
<feColorMatrix in="SourceAlpha" type="matrix" values="0 0 0 0 0 0 0 0 0 0 0 0 0 0 0 0 0 0 127 0"/>
<feOffset dy="4"/>
<feGaussianBlur stdDeviation="2"/>
<feColorMatrix type="matrix" values="0 0 0 0 0 0 0 0 0 0 0 0 0 0 0 0 0 0 0.25 0"/>
<feBlend mode="normal" in2="effect1_dropShadow" result="effect2_dropShadow"/>
<feBlend mode="normal" in="SourceGraphic" in2="effect2_dropShadow" result="shape"/>
</filter>
</defs>
</svg>
